Coordinates
version=1
nRows=27
nColumns=38
inDegrees=no

Units are S.I. units (second, meters, Newtons, ...)
If the header above contains a line with 'inDegrees', this indicates whether rotational values are in degrees (yes) or radians (no).

endheader
time	pelvis_tilt	pelvis_list	pelvis_rotation	pelvis_tx	pelvis_ty	pelvis_tz	hip_flexion_r	hip_adduction_r	hip_rotation_r	knee_angle_r	ankle_angle_r	subtalar_angle_r	mtp_angle_r	hip_flexion_l	hip_adduction_l	hip_rotation_l	knee_angle_l	ankle_angle_l	subtalar_angle_l	mtp_angle_l	lumbar_extension	lumbar_bending	lumbar_rotation	arm_flex_r	arm_add_r	arm_rot_r	elbow_flex_r	pro_sup_r	wrist_flex_r	wrist_dev_r	arm_flex_l	arm_add_l	arm_rot_l	elbow_flex_l	pro_sup_l	wrist_flex_l	wrist_dev_l
1.44	3.00578	1.35084	-1.3651	0.68377	0.774043	0.937935	-0.498739	0.0397365	-0.0614377	0.381002	-0.278072	0	0	0.0752739	-0.015183	-0.0143265	0.281944	-0.249112	0	0	-0.441507	0.0867058	-0.0410974	-0.0205781	-0.558604	1.00097	0.781604	0.455974	0	0	-0.252337	-0.214406	-0.111744	0.741508	1.53792	0	0
1.45	3.01764	1.35157	-1.37645	0.681149	0.784801	0.938999	-0.487819	0.0293112	-0.0668922	0.420188	-0.299594	0	0	0.0659112	-0.011171	-0.0156455	0.285433	-0.25498	0	0	-0.438116	0.0851627	-0.0421167	-0.0278942	-0.560309	0.995083	0.782272	0.461922	0	0	-0.255721	-0.210388	-0.117134	0.741911	1.54532	0	0
1.46	3.03037	1.352	-1.38742	0.67842	0.795525	0.940197	-0.474544	0.0182366	-0.0750457	0.463327	-0.328281	0	0	0.0553964	-0.00721923	-0.0200459	0.286838	-0.257257	0	0	-0.43492	0.0838464	-0.0444787	-0.0349579	-0.561586	0.988763	0.782387	0.469085	0	0	-0.259201	-0.206101	-0.123775	0.742427	1.55426	0	0
1.47	3.04437	1.35303	-1.39853	0.675575	0.806198	0.941259	-0.45828	0.00637894	-0.0851937	0.510423	-0.358453	0	0	0.0441217	-0.00232262	-0.0230019	0.286441	-0.25445	0	0	-0.430997	0.0824167	-0.0482533	-0.0425003	-0.562715	0.981437	0.783159	0.474286	0	0	-0.263593	-0.202585	-0.129624	0.743899	1.56228	0	0
1.48	3.05887	1.35464	-1.40893	0.672652	0.816733	0.942128	-0.438599	-0.00581319	-0.0966304	0.561991	-0.390592	0	0	0.032957	0.00335923	-0.0236479	0.286323	-0.24841	0	0	-0.426218	0.0810028	-0.0535149	-0.0499217	-0.56412	0.974288	0.784829	0.478757	0	0	-0.268915	-0.19982	-0.134706	0.747143	1.56849	0	0
1.49	3.07754	1.35555	-1.42373	0.669749	0.827141	0.94296	-0.416456	-0.0194925	-0.109481	0.617556	-0.426615	0	0	0.0208778	0.0100835	-0.026922	0.286812	-0.24059	0	0	-0.422947	0.078809	-0.0592648	-0.0569872	-0.566652	0.966825	0.788569	0.483088	0	0	-0.27468	-0.197726	-0.138558	0.751852	1.5708	0	0
1.5	3.10053	1.35578	-1.44319	0.666945	0.83735	0.943724	-0.392056	-0.0342236	-0.121986	0.675322	-0.469177	0	0	0.00796065	0.0172007	-0.032187	0.28806	-0.231805	0	0	-0.421153	0.0756052	-0.0649752	-0.063318	-0.569446	0.959991	0.793036	0.487855	0	0	-0.280389	-0.196963	-0.139819	0.757611	1.5708	0	0
1.51	3.12383	1.35601	-1.46297	0.66429	0.84729	0.944366	-0.365122	-0.048762	-0.132154	0.734476	-0.516682	0	0	-0.0048532	0.0235436	-0.0378055	0.28942	-0.222812	0	0	-0.419287	0.0719549	-0.0706457	-0.0685735	-0.571675	0.954724	0.79672	0.493295	0	0	-0.285734	-0.197122	-0.139889	0.763463	1.5708	0	0
1.52	-3.13745	1.35608	-1.48155	0.661828	0.856885	0.94487	-0.336183	-0.0624563	-0.139451	0.794793	-0.559876	0	0	-0.0176541	0.0290798	-0.0433904	0.289305	-0.214727	0	0	-0.417769	0.0682426	-0.0762789	-0.0725691	-0.573795	0.950807	0.800497	0.498977	0	0	-0.291015	-0.197437	-0.140649	0.770211	1.5708	0	0
1.53	-3.12125	1.35497	-1.49488	0.659615	0.866059	0.94547	-0.30705	-0.0740206	-0.143194	0.854636	-0.591997	0	0	-0.0315628	0.0326137	-0.0482906	0.287365	-0.208689	0	0	-0.418056	0.0654984	-0.0812302	-0.0753319	-0.575667	0.947399	0.804391	0.501764	0	0	-0.295268	-0.198317	-0.140879	0.77637	1.5708	0	0
1.54	-3.10488	1.35486	-1.50911	0.657644	0.874943	0.945902	-0.275005	-0.08593	-0.146551	0.916276	-0.61902	0	0	-0.0442473	0.0360848	-0.0511295	0.28437	-0.203092	0	0	-0.417712	0.0621881	-0.0857687	-0.0768004	-0.577142	0.945281	0.807739	0.503515	0	0	-0.299084	-0.199449	-0.140744	0.782643	1.57009	0	0
1.55	3.1398	1.34443	-1.46909	0.654597	0.882431	0.948914	-0.256109	-0.0950874	-0.189889	0.955291	-0.673374	0	0	-0.0674123	0.0272991	-0.0522621	0.275803	-0.203873	0	0	-0.432259	0.0757277	-0.0843304	-0.0712475	-0.583169	0.94587	0.808398	0.504934	0	0	-0.28773	-0.193545	-0.137736	0.772311	1.5708	0	0
1.56	-3.13619	1.34254	-1.47599	0.653019	0.89077	0.949576	-0.224857	-0.103515	-0.187306	1.01099	-0.695208	0	0	-0.0821984	0.0281041	-0.0553672	0.269873	-0.202239	0	0	-0.434881	0.074159	-0.0866286	-0.0700632	-0.584771	0.945499	0.811015	0.505486	0	0	-0.288693	-0.194003	-0.137457	0.776101	1.5708	0	0
1.57	-3.13296	1.33972	-1.479	0.651556	0.89907	0.950339	-0.195479	-0.109691	-0.184632	1.06197	-0.698132	0	0	-0.0983074	0.0277398	-0.0590329	0.263372	-0.200313	0	0	-0.438383	0.0735415	-0.0890576	-0.0675824	-0.585735	0.94674	0.812143	0.506187	0	0	-0.289323	-0.19399	-0.13789	0.77902	1.57078	0	0
1.58	-3.14	1.33591	-1.47224	0.649992	0.907108	0.951464	-0.168264	-0.114505	-0.187231	1.1062	-0.698132	0	0	-0.115479	0.0252077	-0.0637647	0.255785	-0.198623	0	0	-0.443761	0.0759124	-0.090792	-0.0634653	-0.586623	0.948488	0.811885	0.505703	0	0	-0.287647	-0.192295	-0.139039	0.778851	1.57076	0	0
1.59	3.13523	1.33384	-1.46488	0.648628	0.915058	0.952354	-0.138998	-0.117313	-0.185395	1.14719	-0.696164	0	0	-0.130577	0.022754	-0.0682701	0.249371	-0.196516	0	0	-0.447293	0.0782762	-0.0919448	-0.0591829	-0.586909	0.950665	0.810753	0.504663	0	0	-0.28511	-0.190399	-0.1406	0.777169	1.5708	0	0
1.6	3.12639	1.33265	-1.45654	0.647472	0.923066	0.953088	-0.109633	-0.118367	-0.181993	1.18513	-0.667554	0	0	-0.145131	0.0200916	-0.0726927	0.242774	-0.19329	0	0	-0.449332	0.0806211	-0.093126	-0.0543319	-0.586425	0.954774	0.808349	0.503119	0	0	-0.282334	-0.188275	-0.143048	0.774329	1.5708	0	0
1.61	3.1113	1.33052	-1.44192	0.646227	0.930921	0.954012	-0.0826431	-0.117569	-0.181066	1.21605	-0.634855	0	0	-0.160968	0.0161104	-0.0766087	0.234849	-0.190866	0	0	-0.452028	0.0849468	-0.0935002	-0.0486401	-0.586067	0.960117	0.804788	0.501109	0	0	-0.277826	-0.185796	-0.144074	0.769099	1.5708	0	0
1.62	3.0934	1.32925	-1.42437	0.644961	0.938656	0.954863	-0.055113	-0.115157	-0.179461	1.24166	-0.602217	0	0	-0.175612	0.0117422	-0.078819	0.226766	-0.188172	0	0	-0.453869	0.090289	-0.0932599	-0.0428943	-0.585919	0.965743	0.800838	0.497966	0	0	-0.271995	-0.1829	-0.144712	0.762086	1.5708	0	0
1.63	3.07346	1.32708	-1.40406	0.643661	0.946336	0.955778	-0.0295319	-0.11099	-0.177786	1.26035	-0.578359	0	0	-0.191309	0.00652375	-0.0794258	0.217489	-0.186471	0	0	-0.456928	0.0967995	-0.0930325	-0.0377363	-0.586287	0.969572	0.797945	0.49521	0	0	-0.265953	-0.18003	-0.145042	0.755313	1.5708	0	0
1.64	3.0505	1.32315	-1.37964	0.642212	0.95397	0.956878	-0.00746804	-0.105235	-0.178572	1.27116	-0.557912	0	0	-0.208892	-6.46423e-05	-0.0784469	0.2066	-0.186133	0	0	-0.461822	0.105232	-0.0928336	-0.032884	-0.587618	0.972526	0.796184	0.492805	0	0	-0.259169	-0.176873	-0.144915	0.748449	1.5708	0	0
1.65	3.03342	1.32101	-1.3606	0.640918	0.961719	0.95753	0.0161316	-0.0998083	-0.176476	1.2791	-0.53957	0	0	-0.22441	-0.00526926	-0.0765663	0.196314	-0.185306	0	0	-0.463782	0.111592	-0.0935997	-0.029141	-0.588487	0.975357	0.794781	0.491311	0	0	-0.254444	-0.174653	-0.145013	0.744204	1.5708	0	0
1.66	3.01553	1.31836	-1.33986	0.639467	0.969374	0.95824	0.0373143	-0.0942248	-0.177059	1.27967	-0.520116	0	0	-0.239713	-0.0109854	-0.0737373	0.186828	-0.184033	0	0	-0.465929	0.118946	-0.0950872	-0.024755	-0.58974	0.979427	0.793194	0.489963	0	0	-0.249277	-0.171782	-0.145688	0.73942	1.5708	0	0
1.67	3.00043	1.3158	-1.32165	0.638003	0.977	0.958824	0.0572321	-0.0892952	-0.178119	1.27512	-0.50274	0	0	-0.254631	-0.0162414	-0.0708601	0.178351	-0.182036	0	0	-0.468866	0.1259	-0.0969175	-0.0214478	-0.591191	0.980671	0.79298	0.487571	0	0	-0.244631	-0.169481	-0.145873	0.735815	1.5708	0	0
1.68	2.9875	1.31308	-1.30558	0.636542	0.984526	0.95927	0.0759814	-0.0847002	-0.180022	1.2667	-0.48333	0	0	-0.269577	-0.0211354	-0.0680288	0.17067	-0.179216	0	0	-0.471745	0.132336	-0.0988375	-0.0182824	-0.593482	0.982041	0.794133	0.485271	0	0	-0.240463	-0.167984	-0.145098	0.733272	1.5708	0	0
1.69	2.97708	1.30993	-1.29181	0.635127	0.991971	0.959634	0.0930714	-0.0803297	-0.183231	1.25474	-0.464179	0	0	-0.285084	-0.0257313	-0.0648558	0.163419	-0.17705	0	0	-0.474415	0.138055	-0.100968	-0.0149443	-0.595857	0.9844	0.79545	0.48376	0	0	-0.237053	-0.167395	-0.143498	0.731921	1.5708	0	0
1.7	3.00029	1.30875	-1.30864	0.634114	1.00076	0.958653	0.111607	-0.0680015	-0.135431	1.25227	-0.438847	0	0	-0.303201	-0.0224107	-0.0644107	0.153232	-0.17365	0	0	-0.472651	0.133951	-0.109231	-0.0185301	-0.597466	0.982957	0.802184	0.482457	0	0	-0.243843	-0.171147	-0.143327	0.741887	1.5708	0	0
